Music_doridori:
	channel_count 3
	channel 1, Music_doridori_Ch1
	channel 2, Music_doridori_Ch2
	channel 3, Music_doridori_Ch3

Music_doridori_Ch1:
	volume 7, 7
	note_type 12, 12, 5
	octave 2
	tempo 107
	note G#, 2
	note G#, 2
	note A_, 2
	rest 2
	note G#, 2
	note A_, 2
	rest 2
	note G#, 2
	rest 2
	note G#, 2
	note A_, 2
	rest 2
	note B_, 2
	note A_, 2
	note B_, 2
	note A_, 2
	note G#, 2
	note G#, 2
	note A_, 2
	rest 2
	note B_, 2
	note A_, 2
	rest 2
	note G#, 2
	rest 2
	note G#, 2
	note A_, 2
	rest 16
	rest 16
	rest 16
	rest 8
	octave 3
	note B_, 4
	note B_, 4
	note B_, 4
	note B_, 4
	rest 16
	rest 16
	rest 8
	note F#, 4
	note F#, 4
	note B_, 16
	rest 2
	sound_call .sub1
	rest 16
	rest 12
	note E_, 4
	rest 10
	octave 2
	note F#, 2
	rest 2
	note F#, 2
	rest 2
	note F#, 10
	octave 3
	sound_call .sub1
	rest 16
	rest 12
	octave 2
	note E_, 4
	rest 2
	note F#, 2
	rest 2
	note F#, 2
	rest 2
	note G#, 16
	note_type 12, 12, 5
	rest 2
	note A_, 6
	rest 2
	octave 3
	note A_, 4
	rest 4
	octave 2
	note B_, 6
	rest 2
	octave 3
	note B_, 4
	rest 4
	octave 2
	note G#, 6
	rest 2
	octave 3
	note G#, 4
	rest 4
	note C#, 6
	rest 2
	octave 4
	note C#, 4
	rest 4
	octave 3
	note E_, 6
	note F#, 8
	note G_, 8
	note A_, 10
	note E_, 4
	note E_, 6
	note E_, 4
	note F#, 6
	note F#, 4
	note F#, 6
	note F#, 4
	note F#, 2
	note F#, 2
	octave 2
	rest 12
	sound_call .sub2
	rest 2
	octave 3
	note A_, 2
	rest 2
	note A_, 2
	rest 2
	note A_, 2
	rest 2
	note A_, 2
	rest 2
	note B_, 2
	rest 2
	note B_, 2
	rest 2
	note B_, 2
	rest 2
	note B_, 2
	rest 2
	octave 4
	note C_, 2
	rest 2
	note C_, 2
	rest 2
	note C_, 2
	rest 2
	note C_, 2
	octave 3
	note G#, 6
	note F#, 10
	octave 2
	rest 2
	sound_call .sub2
	note_type 12, 12, 5
	octave 3
	note C#, 2
	rest 2
	note C#, 2
	rest 2
	note C#, 2
	rest 2
	note C#, 2
	rest 2
	note D#, 2
	rest 2
	note D#, 2
	rest 2
	note D#, 2
	rest 2
	note D#, 2
	rest 2
	note E_, 6
	note D#, 6
	note E_, 4
	note F#, 2
	note F#, 2
	note F#, 2
	rest 10
	note E_, 6
	note D#, 4
	note C#, 4
	octave 2
	note B_, 16
	rest 16
	rest 16
	rest 8
	octave 3
	duty_cycle 0
	note F#, 4
	note F#, 4
	note B_, 16
	sound_ret

.sub1:
	duty_cycle 0
	note E_, 4
	note E_, 2
	note E_, 4
	rest 4
	note E_, 4
	note E_, 4
	rest 10
	note D#, 4
	note D#, 2
	note D#, 4
	rest 16
	rest 6
	note C#, 4
	sound_ret

.sub2:
	octave 3
	duty_cycle 1
	note A_, 2
	rest 2
	note A_, 2
	rest 2
	note A_, 2
	rest 2
	note A_, 2
	rest 2
	note B_, 2
	rest 2
	note B_, 2
	rest 2
	note B_, 2
	rest 2
	note B_, 2
	rest 2
	note G#, 2
	rest 2
	note G#, 2
	rest 2
	note G#, 2
	rest 2
	note G#, 2
	rest 2
	octave 4
	note C#, 2
	rest 2
	note C#, 2
	rest 2
	octave 3
	note B_, 2
	rest 2
	note B_, 2
	octave 2
	sound_ret

Music_doridori_Ch2:
	note_type 12, 12, 5
	octave 3
	note D#, 2
	note D#, 2
	note E_, 2
	rest 2
	note D#, 2
	note E_, 2
	rest 2
	note D#, 2
	rest 2
	note D#, 2
	note E_, 2
	rest 2
	note F#, 2
	note E_, 2
	note F#, 2
	note E_, 2
	note D#, 2
	note D#, 2
	note E_, 2
	rest 2
	note F#, 2
	note E_, 2
	rest 2
	note D#, 2
	rest 2
	note D#, 2
	note E_, 2
	rest 10
	octave 2
	duty_cycle 1
	note A_, 2
	octave 3
	note E_, 2
	note A_, 2
	octave 2
	note B_, 4
	octave 3
	note F#, 2
	note B_, 2
	note F#, 2
	octave 2
	note G#, 2
	octave 3
	note D#, 2
	note G#, 2
	note C#, 4
	note G#, 2
	octave 4
	note C#, 2
	octave 3
	note G#, 2
	octave 2
	note A_, 2
	octave 3
	note E_, 2
	note A_, 2
	octave 2
	note B_, 4
	octave 3
	note F#, 2
	note B_, 2
	note E_, 4
	note E_, 4
	note E_, 4
	note E_, 4
	octave 2
	note A_, 4
	octave 3
	note E_, 2
	note A_, 2
	octave 2
	note B_, 4
	octave 3
	note F#, 2
	note B_, 2
	note C_, 4
	note G#, 2
	octave 4
	note C_, 2
	octave 3
	note C#, 4
	note G#, 2
	octave 4
	note C#, 4
	octave 2
	note A_, 2
	octave 3
	note E_, 2
	note A_, 2
	octave 2
	note B_, 4
	note B_, 4
	octave 3
	note E_, 16
	rest 2
	octave 2
.loop1:
	note E_, 2
	octave 3
	note E_, 2
	octave 2
	sound_loop 8, .loop1
.loop2:
	note D#, 2
	octave 3
	note D#, 2
	octave 2
	sound_loop 4, .loop2
	octave 1
	note G#, 2
	octave 2
	note G#, 2
	octave 1
	note G#, 2
	octave 2
	note G#, 2
	note C_, 2
	octave 3
	note C_, 2
	octave 2
	note C_, 2
	octave 3
	note C_, 2
	octave 2
.loop3:
	note C#, 2
	octave 3
	note C#, 2
	octave 2
	sound_loop 4, .loop3
	octave 1
.loop4:
	note F#, 2
	octave 2
	note F#, 2
	octave 1
	sound_loop 4, .loop4
	note A_, 2
	octave 2
	note A_, 2
	octave 1
	note A_, 2
	octave 2
	note A_, 2
	octave 1
	note A_, 2
	octave 2
	note A_, 2
	octave 1
	note A_, 2
	note B_, 2
	rest 2
	note B_, 2
	rest 2
	note B_, 10
	octave 2
.loop5:
	duty_cycle 0
	note E_, 2
	note B_, 2
	octave 3
	note E_, 2
	note G#, 4
	note E_, 2
	octave 2
	note B_, 4
	sound_loop 2, .loop5
	note D#, 2
	note A#, 2
	octave 3
	note D#, 2
	note F#, 4
	note D#, 2
	octave 2
	note A#, 4
	octave 1
	note G#, 2
	octave 2
	note D#, 2
	note G#, 2
	note D#, 2
	note C_, 2
	note G#, 2
	octave 3
	note C_, 2
	octave 2
	note G#, 2
	note C#, 2
	note G#, 2
	octave 3
	note C#, 2
	note E_, 4
	note C#, 2
	octave 2
	note G#, 4
	octave 1
	note D#, 2
	octave 2
	note F#, 2
	note A#, 2
	octave 3
	note C#, 4
	octave 2
	note A#, 2
	note F#, 4
	octave 1
	note A_, 4
	rest 2
	note B_, 2
	rest 2
	note B_, 2
	rest 2
	octave 2
	note C#, 16
	rest 2
	octave 1
	duty_cycle 1
	note A_, 6
	octave 2
	note A_, 2
	octave 3
	note E_, 4
	octave 2
	note A_, 4
	octave 1
	note B_, 6
	octave 2
	note B_, 2
	octave 3
	note F#, 4
	octave 2
	note B_, 4
	octave 1
	note G#, 6
	octave 2
	note G#, 2
	octave 3
	note D#, 4
	octave 2
	note G#, 4
	note C#, 6
	octave 3
	note C#, 2
	note G#, 4
	note C#, 4
	octave 2
	note A_, 6
	note B_, 8
	octave 3
	note C_, 8
	note D_, 10
	octave 2
	note A_, 4
	note A_, 6
	note A_, 4
	note B_, 6
	note B_, 4
	note B_, 6
	note B_, 4
	note B_, 2
	note B_, 2
	rest 10
.loop6:
	sound_call .sub1
	octave 2
	note A_, 2
	octave 3
	note E_, 2
	octave 2
	note A_, 2
	octave 3
	note E_, 2
	octave 2
	note A_, 2
	octave 3
	note E_, 2
	octave 2
	note A_, 2
	octave 3
	note E_, 2
	octave 2
	note B_, 2
	octave 3
	note F#, 2
	octave 2
	note B_, 2
	octave 3
	note F#, 2
	octave 2
	note B_, 2
	octave 3
	note F#, 2
	octave 2
	note B_, 2
	octave 3
	note F#, 2
	note C_, 2
	note G#, 2
	note C_, 2
	note G#, 2
	note C_, 2
	note G#, 2
	note C_, 2
	note G#, 2
	note C#, 6
	octave 2
	note B_, 10
	sound_call .sub1
	octave 2
	note_type 12, 12, 5
	note F#, 2
	rest 2
	note F#, 2
	rest 2
	note F#, 2
	rest 2
	note F#, 2
	rest 2
	note G#, 2
	rest 2
	note G#, 2
	rest 2
	note G#, 2
	rest 2
	note G#, 2
	rest 2
	note A_, 6
	note G#, 6
	note A_, 4
	note B_, 2
	note B_, 2
	note B_, 2
	rest 10
	note A_, 6
	note G#, 4
	note F#, 4
	note E_, 16
	duty_cycle 1
	note A_, 4
	octave 3
	note E_, 2
	note A_, 2
	octave 2
	note B_, 4
	octave 3
	note F#, 2
	note B_, 2
	note C_, 4
	note G#, 2
	octave 4
	note C_, 2
	octave 3
	note C#, 4
	note G#, 2
	octave 4
	note C#, 4
	octave 2
	note A_, 2
	octave 3
	note E_, 2
	note A_, 2
	octave 2
	note B_, 4
	note B_, 4
	octave 3
	note E_, 16
	sound_ret

.sub1:
	duty_cycle 0
	note A_, 2
	octave 3
	note E_, 2
	octave 2
	note A_, 2
	octave 3
	note E_, 2
	octave 2
	note A_, 2
	octave 3
	note E_, 2
	octave 2
	note A_, 2
	octave 3
	note E_, 2
	octave 2
	note B_, 2
	octave 3
	note F#, 2
	octave 2
	note B_, 2
	octave 3
	note F#, 2
	octave 2
	note B_, 2
	octave 3
	note F#, 2
	octave 2
	note B_, 2
	octave 3
	note F#, 2
	octave 2
	note G#, 2
	octave 3
	note D#, 2
	octave 2
	note G#, 2
	octave 3
	note D#, 2
	octave 2
	note G#, 2
	octave 3
	note D#, 2
	octave 2
	note G#, 2
	octave 3
	note D#, 2
	note C#, 2
	note G#, 2
	note C#, 2
	note G#, 2
	octave 2
	note B_, 2
	octave 3
	note F#, 2
	octave 2
	note B_, 2
	octave 3
	note F#, 2
	sound_ret

Music_doridori_Ch3:
	note_type 12, 1, 0
	rest 16
	rest 16
	rest 16
	rest 8
	octave 5
	volume_envelope 1, 4
	note E_, 2
	note D#, 2
	note C#, 2
	octave 4
	note B_, 4
.loop1:
	note B_, 2
	octave 5
	note E_, 2
	note D#, 4
	note E_, 4
	octave 4
	note B_, 4
	sound_loop 3, .loop1
	octave 4
	note A_, 4
	note G#, 4
	note A_, 2
	note B_, 2
	note B_, 6
	octave 5
	note E_, 2
	note D#, 4
	note E_, 4
	note F#, 4
	note D#, 4
	note E_, 4
	octave 4
	note B_, 2
	octave 5
	note E_, 2
	note F#, 2
	note G#, 2
	note A_, 2
	note G#, 2
	note E_, 4
	note F#, 4
	note E_, 16
	octave 4
	sound_call .sub1
	note C#, 4
	note E_, 4
	note D#, 2
	rest 2
	note C#, 2
	rest 2
	octave 3
	note B_, 8
	octave 4
	sound_call .sub1
	note_type 12, 1, 4
	note E_, 4
	note D#, 2
	note D#, 2
	note C#, 4
	octave 5
	note C#, 2
	octave 4
	note G#, 2
	note F#, 2
	note F_, 8
	note G#, 6
	note C#, 2
	note C#, 8
	rest 4
	note D#, 4
	note E_, 4
	note F#, 4
	note F#, 4
	note D#, 2
	note D#, 4
	note F#, 4
	note E_, 10
	rest 6
	octave 3
	note B_, 2
	octave 4
	note C_, 2
	octave 3
	note B_, 2
	octave 4
	note C_, 2
	note D_, 4
	note C_, 2
	note D_, 2
	note D#, 4
	note D_, 2
	note D#, 2
	note F_, 8
	note F_, 2
	note G_, 2
	note G_, 2
	note G_, 2
	note G_, 2
	note G_, 2
	note F#, 2
	note E_, 2
	note F#, 4
	note C#, 2
	note D#, 2
	note E_, 2
	note F#, 2
	note G#, 2
	note A_, 2
	note B_, 4
	note B_, 2
	note B_, 2
	note E_, 2
	note F#, 2
	note E_, 2
	note D#, 2
	note E_, 2
	note B_, 4
	note B_, 2
	octave 5
	note C#, 4
	octave 4
	note B_, 4
	note E_, 2
	note B_, 2
	note B_, 2
	note B_, 2
	octave 5
	note C#, 4
	octave 4
	note B_, 4
	note E_, 2
	note F#, 4
	note E_, 2
	note D#, 4
	note E_, 4
	note F#, 4
	note G#, 2
	note A_, 2
	note G#, 4
	note F#, 2
	note E_, 2
	note E_, 2
	note B_, 4
	note B_, 2
	octave 5
	note C#, 4
	octave 4
	note B_, 4
	note C#, 2
	note B_, 2
	note B_, 2
	note B_, 2
	octave 5
	note C#, 4
	octave 4
	note B_, 4
	note E_, 2
	note F#, 4
	note E_, 2
	note F#, 4
	note G#, 2
	note A_, 2
	note B_, 4
	note G#, 2
	note F#, 2
	note E_, 4
	note E_, 2
	note D#, 2
	note E_, 2
	note B_, 2
	note B_, 2
	note B_, 2
	octave 5
	note C#, 4
	octave 4
	note B_, 4
	note C#, 2
	note B_, 4
	note B_, 2
	octave 5
	note C#, 4
	octave 4
	note B_, 4
	note E_, 2
	note F#, 4
	note E_, 4
	note D#, 2
	note E_, 4
	note F#, 4
	note G#, 2
	note A_, 2
	note G#, 4
	rest 2
	note B_, 4
	note E_, 4
	octave 5
	note B_, 4
	note E_, 2
	octave 4
	note G#, 2
	note A_, 2
	note B_, 4
	note G#, 2
	note F#, 2
	note E_, 4
	octave 3
	note B_, 2
	octave 5
	note C#, 2
	octave 4
	note B_, 6
	note A_, 2
	note G#, 4
	note G#, 2
	note A_, 2
	note F#, 6
	rest 2
	note F#, 2
	note F#, 2
	note E_, 2
	note D#, 2
	note E_, 2
	note F#, 4
	note E_, 2
	note E_, 4
	note D#, 4
	note E_, 10
	octave 5
	note E_, 2
	note D#, 2
	note C#, 2
	octave 4
	note B_, 4
	note B_, 2
	octave 5
	note E_, 2
	note D#, 4
	note E_, 4
	note F#, 4
	note D#, 4
	note E_, 4
	octave 4
	note B_, 2
	octave 5
	note E_, 2
	note F#, 2
	note G#, 2
	note A_, 2
	note G#, 2
	note E_, 4
	note F#, 4
	note E_, 16
	sound_ret

.sub1:
	note E_, 2
	note G#, 4
	note G#, 2
	note G#, 4
	note E_, 4
	note A_, 4
	note G#, 4
	note F#, 4
	note E_, 4
	note E_, 2
	note F#, 4
	note F#, 2
	note F#, 4
	note E_, 4
	note D#, 4
	note A_, 4
	note G#, 4
	note F#, 4
	note D#, 2
	note F#, 4
	note E_, 2
	note D#, 4
	note E_, 4
	note D#, 4
	note C#, 4
	note E_, 4
	note C#, 2
	note E_, 2
	note G#, 2
	note A_, 4
	note C#, 2
	sound_ret
